<svg viewBox="0 0 990 93" xmlns="http://www.w3.org/2000/svg">
  <path fill="#FFF" d="M 798.363 68.175 C 798.263 68.075 798.363 67.875 798.463 67.875 L 799.163 67.875 C 805.363 67.275 810.563 63.175 810.563 56.075 C 810.563 47.875 803.963 44.075 796.363 44.075 L 760.763 44.075 C 760.263 44.075 759.863 44.475 759.863 44.975 L 759.863 81.475 C 759.863 81.975 760.263 82.375 760.763 82.375 L 772.163 82.375 C 772.663 82.375 773.063 81.975 773.063 81.475 L 773.063 69.775 C 773.063 69.275 773.463 68.875 773.963 68.875 L 781.363 68.875 C 782.363 68.875 783.363 69.275 784.063 70.075 L 794.563 81.975 C 794.763 82.075 794.963 82.175 795.163 82.275 L 810.163 82.275 C 810.963 82.275 811.363 81.375 810.763 80.775 L 798.363 68.175 Z M 793.563 60.375 L 773.863 60.375 C 773.363 60.375 772.963 59.975 772.963 59.475 L 772.963 53.975 C 772.963 53.475 773.363 53.075 773.863 53.075 L 793.263 53.075 C 796.063 53.075 797.863 54.475 797.863 56.575 C 797.863 59.075 796.163 60.375 793.563 60.375 Z"></path>
  <path fill="#FFF" d="M 942.063 44.075 L 930.663 44.075 C 930.163 44.075 929.763 44.475 929.763 44.975 L 929.763 69.175 C 929.763 69.675 930.163 70.075 930.663 70.075 L 942.063 70.075 C 942.563 70.075 942.963 69.675 942.963 69.175 L 942.963 44.975 C 942.863 44.475 942.463 44.075 942.063 44.075 Z"></path>
  <path fill="#FFF" d="M 942.063 75.175 L 930.663 75.175 C 930.163 75.175 929.763 75.575 929.763 76.075 L 929.763 81.475 C 929.763 81.975 930.163 82.375 930.663 82.375 L 942.063 82.375 C 942.563 82.375 942.963 81.975 942.963 81.475 L 942.963 76.075 C 942.863 75.575 942.463 75.175 942.063 75.175 Z"></path>
  <path fill="#FFF" d="M 988.863 81.175 L 974.263 61.775 C 973.963 61.375 973.963 60.775 974.363 60.375 L 988.163 45.175 C 988.563 44.775 988.263 44.075 987.663 44.075 L 975.663 44.075 C 975.363 44.075 975.063 44.175 974.863 44.475 L 961.563 59.175 C 961.463 59.175 961.463 59.275 961.363 59.275 L 960.863 59.275 C 960.763 59.275 960.663 59.175 960.663 59.075 L 960.663 44.975 C 960.663 44.575 960.363 44.175 959.863 44.175 L 948.963 44.175 C 948.563 44.175 948.163 44.575 948.163 44.975 L 948.163 81.575 C 948.163 81.975 948.463 82.275 948.863 82.275 L 959.963 82.275 C 960.363 82.275 960.663 81.975 960.663 81.575 L 960.663 74.775 C 960.663 74.475 960.763 74.175 960.963 73.975 L 965.863 68.775 C 965.863 68.775 965.863 68.675 965.963 68.675 L 966.663 68.675 C 966.763 68.675 966.763 68.775 966.763 68.775 L 976.563 81.875 C 976.763 82.175 977.063 82.375 977.463 82.375 L 988.463 82.375 C 988.863 82.175 989.163 81.575 988.863 81.175 Z"></path>
  <path fill="#FFF" d="M 828.363 52.775 L 839.463 52.775 C 839.963 52.775 840.363 52.375 840.363 51.875 L 840.363 44.875 C 840.363 44.375 839.963 43.975 839.463 43.975 L 816.463 43.975 C 815.963 43.975 815.563 44.375 815.563 44.875 L 815.563 81.375 C 815.563 81.875 815.963 82.275 816.463 82.275 L 839.463 82.275 C 839.963 82.275 840.363 81.875 840.363 81.375 L 840.363 74.375 C 840.363 73.875 839.963 73.475 839.463 73.475 L 828.263 73.475 C 827.763 73.475 827.363 73.075 827.363 72.575 L 827.363 68.075 C 827.363 67.575 827.763 67.175 828.263 67.175 L 839.363 67.175 C 839.863 67.175 840.263 66.775 840.263 66.275 L 840.263 59.475 C 840.263 58.975 839.863 58.575 839.363 58.575 L 828.263 58.575 C 827.763 58.575 827.363 58.175 827.363 57.675 L 827.363 53.675 C 827.363 53.275 827.863 52.775 828.363 52.775 Z"></path>
  <path fill="#FFF" d="M 858.263 52.775 L 869.363 52.775 C 869.863 52.775 870.263 52.375 870.263 51.875 L 870.263 44.875 C 870.263 44.375 869.863 43.975 869.363 43.975 L 846.363 43.975 C 845.863 43.975 845.463 44.375 845.463 44.875 L 845.463 81.375 C 845.463 81.875 845.863 82.275 846.363 82.275 L 869.363 82.275 C 869.863 82.275 870.263 81.875 870.263 81.375 L 870.263 74.375 C 870.263 73.875 869.863 73.475 869.363 73.475 L 858.163 73.475 C 857.663 73.475 857.263 73.075 857.263 72.575 L 857.263 68.075 C 857.263 67.575 857.663 67.175 858.163 67.175 L 869.263 67.175 C 869.763 67.175 870.163 66.775 870.163 66.275 L 870.163 59.475 C 870.163 58.975 869.763 58.575 869.263 58.575 L 858.163 58.575 C 857.663 58.575 857.263 58.175 857.263 57.675 L 857.263 53.675 C 857.263 53.275 857.763 52.775 858.263 52.775 Z"></path>
  <path fill="#FFF" d="M 742.763 52.775 L 753.863 52.775 C 754.363 52.775 754.763 52.375 754.763 51.875 L 754.763 44.875 C 754.763 44.375 754.363 43.975 753.863 43.975 L 730.863 43.975 C 730.363 43.975 729.963 44.375 729.963 44.875 L 729.963 81.375 C 729.963 81.875 730.363 82.275 730.863 82.275 L 740.963 82.275 C 741.463 82.275 741.863 81.875 741.863 81.375 L 741.863 68.075 C 741.863 67.575 742.263 67.175 742.763 67.175 L 753.863 67.175 C 754.363 67.175 754.763 66.775 754.763 66.275 L 754.763 59.475 C 754.763 58.975 754.363 58.575 753.863 58.575 L 742.763 58.575 C 742.263 58.575 741.863 58.175 741.863 57.675 L 741.863 53.675 C 741.863 53.275 742.263 52.775 742.763 52.775 Z"></path>
  <path fill="#FFF" d="M 910.663 44.075 L 876.263 44.075 C 875.763 44.075 875.363 44.475 875.363 44.975 L 875.363 81.475 C 875.363 81.975 875.763 82.375 876.263 82.375 L 887.663 82.375 C 888.163 82.375 888.563 81.975 888.563 81.475 L 888.563 69.375 C 888.563 69.175 888.763 68.975 888.963 68.975 L 910.763 68.975 C 919.463 68.975 926.163 64.375 926.163 56.375 C 926.063 48.275 919.463 44.075 910.663 44.075 Z M 909.063 60.375 L 889.363 60.375 C 888.863 60.375 888.463 59.975 888.463 59.475 L 888.463 53.975 C 888.463 53.475 888.863 53.075 889.363 53.075 L 908.763 53.075 C 911.563 53.075 913.363 54.475 913.363 56.575 C 913.363 59.075 911.663 60.375 909.063 60.375 Z"></path>
  <path fill="#FFF" d="M 659.463 82.075 L 659.463 47.175 L 665.663 47.175 L 665.663 60.275 L 665.963 60.275 C 666.263 59.675 666.763 58.975 667.263 58.275 C 667.863 57.575 668.663 56.975 669.663 56.375 C 670.663 55.875 671.863 55.575 673.463 55.575 C 675.463 55.575 677.263 56.075 678.963 57.175 C 680.563 58.175 681.863 59.675 682.863 61.775 C 683.863 63.775 684.263 66.275 684.263 69.175 C 684.263 72.075 683.763 74.475 682.863 76.475 C 681.963 78.475 680.663 79.975 678.963 81.075 C 677.263 82.175 675.463 82.675 673.463 82.675 C 671.963 82.675 670.763 82.475 669.763 81.875 C 668.763 81.375 667.963 80.775 667.363 80.075 C 666.763 79.375 666.263 78.675 665.963 78.075 L 665.563 78.075 L 665.563 82.175 L 659.463 82.175 L 659.463 82.075 Z M 665.563 68.975 C 665.563 70.675 665.763 72.175 666.263 73.375 C 666.763 74.675 667.463 75.675 668.363 76.375 C 669.263 77.075 670.363 77.475 671.663 77.475 C 673.063 77.475 674.163 77.075 675.063 76.375 C 675.963 75.675 676.663 74.675 677.163 73.375 C 677.663 72.075 677.863 70.675 677.863 68.975 C 677.863 67.375 677.663 65.875 677.163 64.675 C 676.663 63.375 675.963 62.475 675.063 61.675 C 674.163 60.975 672.963 60.575 671.663 60.575 C 670.363 60.575 669.263 60.875 668.263 61.575 C 667.363 62.275 666.663 63.275 666.163 64.475 C 665.763 65.775 665.563 67.275 665.563 68.975 Z M 692.363 91.875 C 691.563 91.875 690.763 91.775 690.063 91.675 C 689.363 91.575 688.763 91.375 688.363 91.275 L 689.763 86.475 C 690.663 86.775 691.463 86.875 692.163 86.875 C 692.863 86.875 693.463 86.675 694.063 86.175 C 694.563 85.775 695.063 85.075 695.463 84.075 L 695.963 82.675 L 686.463 55.975 L 692.963 55.975 L 698.963 75.775 L 699.263 75.775 L 705.363 55.975 L 711.963 55.975 L 701.463 85.375 C 700.963 86.775 700.363 87.975 699.563 88.975 C 698.763 89.975 697.763 90.775 696.563 91.275 C 695.363 91.675 694.063 91.875 692.363 91.875 Z"></path>
  <path fill="#FFF" d="M 224.363 69.375 L 224.363 79.875 C 224.363 80.675 223.763 81.275 222.963 81.275 L 181.563 81.275 C 180.763 81.275 180.163 80.675 180.163 79.875 L 180.163 12.675 C 180.163 11.875 180.763 11.275 181.563 11.275 L 198.463 11.275 C 199.263 11.275 199.863 11.875 199.863 12.675 L 199.863 66.575 C 199.863 67.375 200.463 67.975 201.263 67.975 L 222.863 67.975 C 223.763 67.875 224.363 68.575 224.363 69.375 Z"></path>
  <path fill="#B07CC6" d="M 89.663 52.175 L 47.563 27.875 L 31.563 37.075 L 22.263 31.675 C 21.663 31.375 21.663 30.575 22.263 30.275 L 46.363 16.375 C 47.163 15.875 48.163 15.875 48.863 16.375 L 90.063 40.175 C 96.863 35.875 96.863 25.875 89.763 21.775 L 55.763 2.175 C 50.663 -0.725 44.463 -0.725 39.363 2.175 C 27.063 9.275 5.363 21.775 5.363 21.775 C -1.837 25.975 -1.737 36.175 5.463 40.375 L 47.563 64.775 L 63.663 55.575 L 72.963 60.975 C 73.563 61.275 73.563 62.075 72.963 62.375 L 48.863 76.275 C 48.063 76.775 47.063 76.575 46.263 76.075 L 5.063 52.275 C -1.737 56.575 -1.737 66.475 5.363 70.575 L 39.363 90.175 C 44.463 93.075 50.663 93.075 55.763 90.175 L 89.763 70.575 C 96.963 66.575 96.863 56.275 89.663 52.175 Z"></path>
  <path fill="#FFF" d="M 576.163 83.575 C 558.063 83.575 538.763 73.775 538.763 46.375 C 538.763 18.975 558.063 9.175 576.163 9.175 C 594.263 9.175 613.663 18.975 613.663 46.375 C 613.663 73.775 594.263 83.575 576.163 83.575 Z M 576.163 23.875 C 565.763 23.875 558.463 33.075 558.463 46.375 C 558.463 59.175 566.063 68.875 576.163 68.875 C 586.263 68.875 593.863 59.175 593.863 46.375 C 593.863 33.175 586.563 23.875 576.163 23.875 Z"></path>
  <path fill="#FFF" d="M 140.763 82.275 C 134.463 82.275 127.963 80.975 122.163 78.475 C 121.763 78.275 121.463 77.775 121.463 77.275 L 121.463 64.775 C 121.463 63.975 122.363 63.475 123.063 63.875 C 128.563 67.075 133.963 68.775 138.563 68.775 C 144.263 68.775 148.363 66.075 149.063 61.975 C 149.663 58.775 147.963 54.275 141.263 51.775 C 124.663 45.675 119.963 41.075 119.963 31.275 C 119.963 17.975 130.363 10.275 148.363 10.275 C 156.263 10.275 162.463 11.875 165.363 12.775 C 165.863 12.975 166.163 13.375 166.163 13.875 L 166.163 25.175 C 166.163 25.975 165.363 26.475 164.663 26.075 C 160.863 24.175 155.263 22.775 150.563 22.775 C 142.163 22.775 141.263 26.975 141.263 28.675 C 141.263 33.075 145.763 34.975 151.063 37.075 C 159.163 40.475 169.263 44.575 169.263 59.175 C 169.263 66.375 166.363 72.275 160.863 76.275 C 155.663 80.275 148.563 82.275 140.763 82.275 Z"></path>
  <path fill="#FFF" d="M 256.063 11.175 L 239.163 11.175 C 238.363 11.175 237.763 11.775 237.763 12.575 L 237.763 79.775 C 237.763 80.575 238.363 81.175 239.163 81.175 L 256.063 81.175 C 256.863 81.175 257.463 80.575 257.463 79.775 L 257.463 12.575 C 257.463 11.775 256.863 11.175 256.063 11.175 Z"></path>
  <path fill="#FFF" d="M 386.363 23.275 L 386.363 12.575 C 386.363 11.775 385.763 11.175 384.963 11.175 L 343.363 11.175 C 342.563 11.175 341.963 11.775 341.963 12.575 L 341.963 79.875 C 341.963 80.675 342.563 81.275 343.363 81.275 L 384.963 81.275 C 385.763 81.275 386.363 80.675 386.363 79.875 L 386.363 69.175 C 386.363 68.375 385.763 67.775 384.963 67.775 L 363.063 67.775 C 362.263 67.775 361.663 67.175 361.663 66.375 L 361.663 53.775 C 361.663 52.975 362.263 52.375 363.063 52.375 L 384.863 52.375 C 385.663 52.375 386.263 51.775 386.263 50.975 L 386.263 40.275 C 386.263 39.475 385.663 38.875 384.863 38.875 L 363.063 38.875 C 362.263 38.875 361.663 38.275 361.663 37.475 L 361.663 26.275 C 361.663 25.475 362.263 24.875 363.063 24.875 L 384.863 24.875 C 385.763 24.775 386.363 24.075 386.363 23.275 Z"></path>
  <path fill="#FFF" d="M 298.163 11.175 L 272.963 11.175 C 272.163 11.175 271.563 11.775 271.563 12.575 L 271.863 79.875 C 271.863 80.675 272.463 81.275 273.263 81.275 L 298.163 81.275 C 322.263 81.275 330.863 62.175 330.863 45.475 C 330.863 32.675 326.663 11.175 298.163 11.175 Z M 298.063 66.975 L 291.963 66.975 C 291.363 66.975 290.963 66.475 290.963 65.975 L 290.963 26.375 C 290.963 25.775 291.463 25.375 291.963 25.375 L 297.963 25.375 C 306.063 25.375 310.863 32.875 310.863 45.475 C 310.863 58.675 305.963 66.975 298.063 66.975 Z"></path>
  <path fill="#FFF" d="M 417.963 82.275 C 411.663 82.275 405.163 80.975 399.363 78.475 C 398.963 78.275 398.663 77.775 398.663 77.275 L 398.663 64.775 C 398.663 63.975 399.563 63.475 400.263 63.875 C 405.763 67.075 411.163 68.775 415.763 68.775 C 421.463 68.775 425.563 66.075 426.263 61.975 C 426.863 58.775 425.163 54.275 418.463 51.775 C 401.863 45.675 397.163 41.075 397.163 31.275 C 397.163 17.975 407.563 10.275 425.563 10.275 C 433.463 10.275 439.663 11.875 442.563 12.775 C 443.063 12.975 443.363 13.375 443.363 13.875 L 443.363 25.175 C 443.363 25.975 442.563 26.475 441.863 26.075 C 438.063 24.175 432.463 22.775 427.763 22.775 C 419.363 22.775 418.463 26.975 418.463 28.675 C 418.463 33.075 422.963 34.975 428.263 37.075 C 436.363 40.475 446.463 44.575 446.463 59.175 C 446.463 66.375 443.563 72.275 438.063 76.275 C 432.963 80.275 425.863 82.275 417.963 82.275 Z"></path>
  <path fill="#FFF" d="M 527.363 44.075 L 497.863 44.075 C 497.063 44.075 496.463 44.675 496.463 45.475 L 496.463 54.375 C 496.463 55.175 497.063 55.775 497.863 55.775 L 507.563 55.775 C 507.863 55.775 508.063 55.975 508.063 56.275 C 508.063 56.775 507.963 57.575 507.763 58.375 C 506.163 64.875 500.463 68.775 492.463 68.775 C 482.363 68.775 474.763 59.075 474.763 46.275 C 474.763 33.075 482.063 23.775 492.463 23.775 C 498.563 23.775 503.863 27.075 506.863 32.775 C 507.163 33.275 507.663 33.675 508.263 33.675 L 526.363 33.675 C 527.363 33.675 527.963 32.675 527.663 31.675 C 522.763 17.475 509.763 9.075 492.463 9.075 C 474.363 9.075 454.963 18.875 454.963 46.275 C 454.963 73.675 474.263 83.475 492.463 83.475 C 500.863 83.475 508.463 81.475 514.663 77.575 C 514.863 77.475 515.163 77.375 515.363 77.375 C 515.563 77.375 515.863 77.475 516.063 77.575 C 516.363 77.775 516.663 78.075 516.763 78.475 L 516.763 79.675 C 516.763 80.475 517.363 81.175 518.163 81.175 L 527.363 81.175 C 528.163 81.175 528.763 80.575 528.763 79.775 L 528.763 45.575 C 528.763 44.775 528.163 44.075 527.363 44.075 Z"></path>
</svg>
